<svg width="40" height="40" viewBox="0 0 40 40" fill="none" xmlns="http://www.w3.org/2000/svg">
  <circle cx="14" cy="8" r="3" fill="currentColor"/>
  <circle cx="26" cy="8" r="3" fill="currentColor"/>
  <circle cx="8" cy="16" r="3" fill="currentColor"/>
  <circle cx="20" cy="16" r="3" fill="currentColor"/>
  <circle cx="32" cy="16" r="3" fill="currentColor"/>
  <path d="M8 22c-2.5 0-4.5 2-4.5 4.5v1c0 1.1.9 2 2 2h5c1.1 0 2-.9 2-2v-1c0-2.5-2-4.5-4.5-4.5z" fill="currentColor"/>
  <path d="M20 22c-2.5 0-4.5 2-4.5 4.5v1c0 1.1.9 2 2 2h5c1.1 0 2-.9 2-2v-1c0-2.5-2-4.5-4.5-4.5z" fill="currentColor"/>
  <path d="M32 22c-2.5 0-4.5 2-4.5 4.5v1c0 1.1.9 2 2 2h5c1.1 0 2-.9 2-2v-1c0-2.5-2-4.5-4.5-4.5z" fill="currentColor"/>
  <ellipse cx="20" cy="32" rx="18" ry="6" fill="currentColor" opacity="0.3"/>
</svg>